<?xml version="1.0" encoding="UTF-8" standalone="no"?>
<!-- Created with Inkscape (http://www.inkscape.org/) -->

<svg
   xmlns:dc="http://purl.org/dc/elements/1.1/"
   xmlns:cc="http://creativecommons.org/ns#"
   xmlns:rdf="http://www.w3.org/1999/02/22-rdf-syntax-ns#"
   xmlns:svg="http://www.w3.org/2000/svg"
   xmlns="http://www.w3.org/2000/svg"
   xmlns:sodipodi="http://sodipodi.sourceforge.net/DTD/sodipodi-0.dtd"
   xmlns:inkscape="http://www.inkscape.org/namespaces/inkscape"
   width="210mm"
   height="297mm"
   viewBox="0 0 210 297"
   version="1.1"
   id="svg8"
   inkscape:version="0.92.0 r15299"
   sodipodi:docname="uog_white.svg">
  <defs
     id="defs2">
    <clipPath
       id="clipPath30343"
       clipPathUnits="userSpaceOnUse">
      <path
         inkscape:connector-curvature="0"
         id="path30341"
         d="M 0,483.27 V 0 h 3389.17 v 483.27 z" />
    </clipPath>
    <filter
       style="color-interpolation-filters:sRGB;"
       inkscape:label="Lightness-Contrast"
       id="filter31100">
      <feColorMatrix
         type="hueRotate"
         values="180"
         result="color1"
         id="feColorMatrix31096" />
      <feColorMatrix
         values="-1 0 0 0 1 0 -1 0 0 1 0 0 -1 0 1 -0.21 -0.72 -0.07 2 0 "
         result="fbSourceGraphic"
         id="feColorMatrix31098" />
      <feColorMatrix
         result="fbSourceGraphicAlpha"
         in="fbSourceGraphic"
         values="0 0 0 -1 0 0 0 0 -1 0 0 0 0 -1 0 0 0 0 1 0"
         id="feColorMatrix31126" />
      <feColorMatrix
         id="feColorMatrix31128"
         values="6.10417 0 0 1.59098 -2.55208 0 6.10417 0 1.59098 -2.55208 0 0 6.10417 1.59098 -2.55208 0 0 0 1 0"
         in="fbSourceGraphic" />
    </filter>
  </defs>
  <sodipodi:namedview
     id="base"
     pagecolor="#ffffff"
     bordercolor="#666666"
     borderopacity="1.0"
     inkscape:pageopacity="0.0"
     inkscape:pageshadow="2"
     inkscape:zoom="2.8"
     inkscape:cx="215.57798"
     inkscape:cy="694.17266"
     inkscape:document-units="mm"
     inkscape:current-layer="layer1"
     showgrid="false"
     inkscape:window-width="1920"
     inkscape:window-height="1137"
     inkscape:window-x="-8"
     inkscape:window-y="-8"
     inkscape:window-maximized="1" />
  <metadata
     id="metadata5">
    <rdf:RDF>
      <cc:Work
         rdf:about="">
        <dc:format>image/svg+xml</dc:format>
        <dc:type
           rdf:resource="http://purl.org/dc/dcmitype/StillImage" />
        <dc:title></dc:title>
      </cc:Work>
    </rdf:RDF>
  </metadata>
  <g
     inkscape:label="Layer 1"
     inkscape:groupmode="layer"
     id="layer1">
    <g
       id="g30335"
       transform="matrix(0.03527778,0,0,-0.03527778,44.729225,123.90678)"
       style="filter:url(#filter31100)">
      <g
         id="g30337">
        <g
           id="g30339"
           clip-path="url(#clipPath30343)">
          <path
             d="m 610.16,478.789 v -5.617 c -19.972,-0.336 -27.117,-8.379 -27.117,-27.426 v -80.43 c 0,-36.937 -23.516,-76.586 -88.184,-76.586 -56.894,0 -86.082,32.461 -86.082,75.067 v 87.008 c 0,19.066 -5.359,22.031 -25.625,22.367 v 5.617 h 76.575 v -5.617 h -2.692 c -16.367,0 -23.527,-4.516 -23.527,-21.781 v -82.817 c 0,-40.195 23.527,-64.34 67.918,-64.34 33.668,0 67.926,14.008 67.926,64.61 v 69.437 c 0,28.598 -4.485,33.657 -29.2,34.891 v 5.617 h 70.008"
             style="fill:#231f20;fill-opacity:1;fill-rule:nonzero;stroke:none"
             id="path30345"
             inkscape:connector-curvature="0" />
          <path
             d="m 643.816,319.422 c 0,-16.379 3.872,-20.285 19.957,-20.285 v -5.645 h -59.882 v 5.645 c 13.105,0 19.961,7.168 19.961,18.789 v 62.551 c 0,11.027 -1.207,13.105 -8.934,14.589 l -10.137,2.098 v 4.766 l 34.266,12.519 h 4.769 v -23.215 c 19.957,12.493 36.633,23.5 51.239,23.5 20.261,0 31.871,-14.875 31.871,-44.656 0,-39.621 -2.078,-47.355 -2.375,-59 -0.313,-8.035 4.465,-11.941 16.679,-11.941 h 6.559 v -5.645 h -64.043 v 5.645 c 8.617,0.332 13.688,2.402 16.961,5.672 5.648,5.675 6.258,27.437 6.258,67.031 0,23.844 -11.606,31.301 -23.551,31.301 -9.512,0 -24.105,-8.352 -39.598,-19.063 v -64.656"
             style="fill:#231f20;fill-opacity:1;fill-rule:nonzero;stroke:none"
             id="path30347"
             inkscape:connector-curvature="0" />
          <path
             d="m 788.801,483.27 c 7.156,0 13.094,-5.051 13.094,-11.332 0,-6.247 -5.938,-11.317 -13.094,-11.317 -7.168,0 -12.817,5.07 -12.817,11.317 0,6.281 5.649,11.332 12.817,11.332 z m 12.211,-167.129 c 0,-10.434 5.652,-17.004 21.449,-17.004 v -5.645 h -66.145 v 5.645 c 18.164,0 24.731,5.965 24.731,21.777 v 59.863 c 0,11.641 -1.481,13.098 -9.227,14.614 l -14.004,2.683 v 4.754 l 38.715,13.418 h 4.481 V 316.141"
             style="fill:#231f20;fill-opacity:1;fill-rule:nonzero;stroke:none"
             id="path30349"
             inkscape:connector-curvature="0" />
          <path
             d="m 883.141,290.816 -43.2,98.891 c -4.472,10.434 -8.347,14.02 -13.117,14.918 l -9.226,1.477 v 5.367 h 60.769 v -5.367 c -18.176,-0.59 -23.836,-2.961 -16.683,-16.957 l 31.597,-74.196 30.367,68.809 c 5.372,12.238 2.68,20.867 -19.046,22.344 v 5.367 h 51.836 v -5.367 c -11.325,-2.082 -17.903,-8.622 -23.555,-21.743 l -41.09,-93.543 h -8.652"
             style="fill:#231f20;fill-opacity:1;fill-rule:nonzero;stroke:none"
             id="path30351"
             inkscape:connector-curvature="0" />
          <path
             d="m 1036.46,376.918 c -3.27,19.348 -15.19,32.18 -29.51,32.18 -9.817,0 -24.7,-4.473 -31.563,-32.18 z m -61.995,-7.738 c -0.559,-4.496 -1.149,-8.645 -1.149,-12.512 0,-30.984 21.739,-51.859 45.254,-51.859 14.91,0 26.53,5.957 37.87,19.39 l 3.26,-3.566 c -12.51,-15.824 -31.28,-30.723 -53.03,-30.723 -29.19,0 -51.815,26.52 -51.815,61.09 0,31.586 21.129,63.734 57.485,63.734 40.19,0 39.32,-28.875 49.14,-38.711 v -6.843 h -87.015"
             style="fill:#231f20;fill-opacity:1;fill-rule:nonzero;stroke:none"
             id="path30353"
             inkscape:connector-curvature="0" />
          <path
             d="m 1115.7,315.242 c 0,-12.199 4.48,-16.105 19.37,-16.105 h 11.31 v -5.645 h -70.61 v 5.645 c 15.22,0.332 19.98,6.57 19.98,22.375 v 68.797 l -19.98,7.171 v 5.063 l 33.95,11.906 h 5.98 v -31.57 h 0.59 c 14.89,24.433 18.47,30.074 28.3,30.074 3.59,0 4.47,-0.297 10.13,-2.676 2.99,-1.179 8.36,-2.398 15.49,-4.449 l -7.13,-17.898 c -4.49,0.593 -10.16,2.097 -15.81,4.785 -3.26,1.492 -6.85,2.969 -10.43,2.969 -5.33,0 -8.63,-3.614 -11.62,-7.754 -3.85,-5.344 -7.13,-10.446 -9.52,-14.883 v -57.805"
             style="fill:#231f20;fill-opacity:1;fill-rule:nonzero;stroke:none"
             id="path30355"
             inkscape:connector-curvature="0" />
          <path
             d="m 1186.98,323.598 c 3.55,-17.891 14.88,-28.008 28.29,-28.008 11.91,0 21.15,8.93 21.15,19.652 0,6.27 -1.5,10.133 -9.54,18.196 -21.16,21.136 -44.68,23.23 -44.68,47.949 0,19.664 15.51,33.347 38.13,33.347 8.03,0 16.38,-1.781 23.83,-4.757 l 0.59,-27.098 h -5.07 c -2.08,15.195 -11.9,24.707 -23.83,24.707 -9.81,0 -18.14,-6.856 -18.14,-16.668 0,-26.234 55.39,-30.688 55.39,-67.012 0,-19.386 -16.1,-33.996 -36.94,-33.996 -5.68,0 -9.82,0.906 -13.11,2.086 -3.26,0.914 -5.67,1.793 -8.03,1.793 -1.79,0 -3.57,-1.176 -5.07,-3.559 h -4.48 l -3.27,33.368 h 4.78"
             style="fill:#231f20;fill-opacity:1;fill-rule:nonzero;stroke:none"
             id="path30357"
             inkscape:connector-curvature="0" />
          <path
             d="m 1299.95,483.27 c 7.16,0 13.1,-5.051 13.1,-11.332 0,-6.247 -5.94,-11.317 -13.1,-11.317 -7.15,0 -12.8,5.07 -12.8,11.317 0,6.281 5.65,11.332 12.8,11.332 z m 12.22,-167.129 c 0,-10.434 5.66,-17.004 21.44,-17.004 v -5.645 h -66.14 v 5.645 c 18.19,0 24.74,5.965 24.74,21.777 v 59.863 c 0,11.641 -1.5,13.098 -9.23,14.614 l -14.02,2.683 v 4.754 l 38.73,13.418 h 4.48 V 316.141"
             style="fill:#231f20;fill-opacity:1;fill-rule:nonzero;stroke:none"
             id="path30359"
             inkscape:connector-curvature="0" />
          <path
             d="m 1411.6,411.469 -4.75,-13.114 h -32.08 v -69.406 c 0,-18.746 13.42,-25.039 19.67,-25.039 6.56,0 12.5,5.094 18.16,14.942 l 4.78,-4.481 c -7.15,-15.516 -18.78,-24.461 -32.49,-24.461 -17.55,0 -30.07,14.61 -30.07,34.559 v 73.886 h -13.71 v 4.786 c 11.62,5.644 21.77,19.343 28.59,37.832 h 5.07 v -29.504 h 36.83"
             style="fill:#231f20;fill-opacity:1;fill-rule:nonzero;stroke:none"
             id="path30361"
             inkscape:connector-curvature="0" />
          <path
             d="m 1522.81,378.414 c 8.94,22.637 3.28,27.098 -14.28,27.688 v 5.367 h 49.44 v -5.367 c -12.22,-1.477 -19.04,-9.836 -24.72,-23.836 l -50.66,-126.309 c -8.91,-22.035 -15.77,-31.879 -26.2,-31.879 -7.15,0 -12.2,4.481 -12.2,10.442 0,12.207 17.27,9.218 24.71,16.687 3.28,3.285 7.75,11.02 10.12,16.965 l 8.94,22.371 -46.16,97.98 c -5.68,12.207 -11.01,17.305 -23.54,17.579 v 5.367 h 59.89 v -5.367 c -18.17,-0.274 -20.26,-5.645 -14.3,-18.172 l 33.67,-72.688 25.29,63.172"
             style="fill:#231f20;fill-opacity:1;fill-rule:nonzero;stroke:none"
             id="path30363"
             inkscape:connector-curvature="0" />
          <path
             d="m 447.812,181.762 c -18.781,0 -35.453,-36.039 -35.453,-65.84 0,-25.0079 10.715,-37.2267 20.844,-37.2267 23.832,0 37.836,38.7267 37.836,66.1287 0,20.879 -10.133,36.938 -23.227,36.938 z m 15.184,11.031 c 8.641,0 27.117,-11.898 27.117,-43.82 0,-56.5902 -56.308,-81.3168 -70.308,-81.3168 -14,0 -26.508,22.3321 -26.508,47.0858 0,48.246 51.832,78.051 69.699,78.051"
             style="fill:#231f20;fill-opacity:1;fill-rule:nonzero;stroke:none"
             id="path30365"
             inkscape:connector-curvature="0" />
          <path
             d="m 500.73,179.383 0.907,5.66 c 7.156,0.895 14.301,2.094 21.761,3.891 4.454,24.414 13.387,50.019 30.075,66.699 10.418,10.441 23.539,16.101 35.144,16.101 11.637,0 21.149,-6.55 21.149,-14.289 0,-4.765 -3.578,-8.656 -8.356,-8.656 -9.805,0 -17.859,12.227 -26.492,12.227 -11.633,0 -21.133,-13.118 -25.316,-32.774 l -8.047,-39.035 h 25.613 l -2.98,-9.824 H 539.762 L 524.574,92.3828 C 512.961,25.6523 478.984,1.83984 450.984,1.83984 c -12.492,0 -22.925,6.2461 -22.925,13.69136 0,4.7813 4.769,8.9454 9.839,8.9454 11.012,0 16.961,-13.1094 28.286,-13.1094 6.859,0 12.8,3.2695 18.191,8.6328 14.883,14.8906 20.531,65.8164 21.723,72.9766 l 15.195,86.4064 H 500.73"
             style="fill:#231f20;fill-opacity:1;fill-rule:nonzero;stroke:none"
             id="path30367"
             inkscape:connector-curvature="0" />
          <path
             d="M 785.18,85.2539 C 755.699,70.043 717.875,66.4805 705.355,66.4805 c -65.222,0 -95.625,50.3395 -95.625,93.8475 0,44.676 31.305,100.688 103.981,100.688 31.855,0 53.012,-10.133 59.262,-10.133 2.687,0 5.078,0.586 6.863,2.082 h 4.172 v -48.262 h -5.957 c -8.063,37.235 -33.371,48.856 -61.071,48.856 -52.429,0 -79.246,-43.512 -79.246,-91.465 0,-61.055 42.907,-88.1604 77.153,-88.1604 13.718,0 28.89,2.9844 45.582,11.3203 v 37.5391 c 0,16.949 -5.949,22.637 -23.824,22.637 h -11.036 v 5.347 h 80.438 V 145.43 C 791.156,144.527 785.18,139.453 785.18,126.66 V 85.2539"
             style="fill:#231f20;fill-opacity:1;fill-rule:nonzero;stroke:none"
             id="path30369"
             inkscape:connector-curvature="0" />
          <path
             d="m 850.844,94.7734 c 0,-12.207 5.679,-17.8554 17.285,-17.8554 h 5.074 v -5.6875 h -67.019 v 5.6875 c 19.054,0 24.714,5.6484 24.714,19.957 v 143.871 c 0,8.363 -0.898,11.016 -9.234,11.934 l -13.394,1.496 v 5.047 l 38.117,12.218 h 4.457 V 94.7734"
             style="fill:#231f20;fill-opacity:1;fill-rule:nonzero;stroke:none"
             id="path30371"
             inkscape:connector-curvature="0" />
          <path
             d="m 946.855,126.66 c -5.66,-3.281 -10.414,-5.387 -17.574,-8.359 -18.172,-7.434 -25.019,-10.43 -25.019,-22.6682 0,-10.7031 8.625,-17.5312 17.586,-17.5312 4.757,0 8.332,1.4726 25.007,13.0898 z m -58.964,27.094 c -0.606,1.812 -0.903,2.687 -0.903,4.172 0,10.441 24.711,34.574 44.074,34.574 8.965,0 22.938,-4.18 31.266,-15.816 4.488,-6.25 4.488,-10.122 4.488,-25.602 v -39.914 c 0,-23.8399 0,-29.2071 7.754,-29.2071 3.258,0 7.145,0.3282 14.586,6.5586 l 1.485,-4.4804 C 974.57,70.9453 966.211,67.6562 961.16,67.6562 c -12.219,0 -13.418,13.4258 -13.711,18.1602 -20.539,-16.9453 -26.496,-18.1602 -34.562,-18.1602 -17.258,0 -27.696,9.8438 -27.696,24.4297 0,18.1641 16.094,24.4221 35.161,29.1871 6.253,1.52 16.089,5.075 26.503,11.344 v 23.539 c 0,8.344 0,13.121 -5.07,19.055 -3.855,4.789 -10.109,8.637 -16.683,8.637 -9.821,0 -18.477,-8.344 -18.477,-14.571 0,-1.816 0.309,-3 1.504,-5.679 l -20.238,-9.844"
             style="fill:#231f20;fill-opacity:1;fill-rule:nonzero;stroke:none"
             id="path30373"
             inkscape:connector-curvature="0" />
          <path
             d="m 1005.31,101.332 c 3.6,-17.875 14.89,-28.0273 28.34,-28.0273 11.91,0 21.14,8.9844 21.14,19.6719 0,6.2695 -1.48,10.1364 -9.54,18.1914 -21.13,21.125 -44.68,23.246 -44.68,47.953 0,19.668 15.49,33.379 38.13,33.379 8.03,0 16.38,-1.809 23.83,-4.77 l 0.59,-27.121 h -5.05 c -2.1,15.207 -11.92,24.743 -23.85,24.743 -9.83,0 -18.16,-6.852 -18.16,-16.684 0,-26.219 55.41,-30.691 55.41,-67.059 0,-19.3199 -16.09,-33.9528 -36.95,-33.9528 -5.64,0 -9.83,0.8946 -13.11,2.0743 -3.25,0.9297 -5.66,1.7929 -8.03,1.7929 -1.81,0 -3.57,-1.1679 -5.05,-3.5703 h -4.49 l -3.27,33.3789 h 4.74"
             style="fill:#231f20;fill-opacity:1;fill-rule:nonzero;stroke:none"
             id="path30375"
             inkscape:connector-curvature="0" />
          <path
             d="m 1138.47,186.82 c -11.33,0 -28.9,-6.25 -28.9,-33.953 0,-17.566 8.94,-41.133 31.59,-41.133 17.27,0 28.58,14.309 28.58,34.875 0,25.606 -13.1,40.211 -31.27,40.211 z m 8.34,-176.6403 c 25.32,0 49.14,16.6797 49.14,35.4531 0,11.0039 -9.21,16.6797 -19.97,17.5508 -7.74,0.918 -45.25,1.2187 -53.89,2.3984 -8.35,-9.8164 -19.38,-13.9843 -19.38,-25.5937 0,-14.0352 19.66,-29.8086 44.1,-29.8086 z m 67.62,154.5863 c -4.46,0.293 -18.48,1.511 -29.79,3.601 1.78,-3.308 5.06,-9.523 5.06,-19.066 0,-22.051 -19.05,-43.223 -52.12,-43.223 -5.66,0 -8.34,0.61 -13.71,2.399 -4.76,-5.071 -18.17,-8.336 -18.17,-15.1918 0,-7.4688 12.81,-10.4297 42.6,-10.7188 33.66,-0.2773 45.28,-1.8008 54.22,-10.7422 7.13,-7.1562 8.93,-14.5781 8.93,-20.8242 0,-19.375 -26.23,-49.16016 -81.32,-49.16016 -30.97,0 -45.87,13.69136 -45.87,28.30076 0,17.2617 18.18,19.9453 31.85,36.6055 -16.06,1.5156 -28.29,11.6289 -28.29,21.1601 0,13.7028 19.98,14.3088 30.41,22.0588 -18.18,7.152 -28.62,19.953 -28.62,36.945 0,25.645 22.94,45.59 52.42,45.59 13.72,0 25.34,-4.18 33.39,-11.93 13.37,0 25.9,1.52 39.01,2.981 v -18.785"
             style="fill:#231f20;fill-opacity:1;fill-rule:nonzero;stroke:none"
             id="path30377"
             inkscape:connector-curvature="0" />
          <path
             d="m 1289,74.8125 c 17.58,0 37.5,17.8906 37.5,47.6675 0,33.961 -20.83,62.872 -45.85,62.872 -19.67,0 -37.85,-20.293 -37.85,-45.899 0,-36.047 20.59,-64.6405 46.2,-64.6405 z M 1284.82,192.5 c 36.34,0 64.04,-27.102 64.04,-62.582 0,-35.1446 -27.7,-62.2618 -63.15,-62.2618 -36.93,0 -65.23,26.8204 -65.23,61.6558 0,41.122 33.37,63.188 64.34,63.188"
             style="fill:#231f20;fill-opacity:1;fill-rule:nonzero;stroke:none"
             id="path30379"
             inkscape:connector-curvature="0" />
          <path
             d="m 1487.09,68.5508 -35.45,84.0082 -35.76,-84.0082 h -8.32 l -44.42,100.1172 c -4.14,9.23 -8.34,13.691 -22.03,15.18 v 5.359 h 57.8 v -5.359 c -17.58,-0.875 -18.77,-5.95 -12.51,-19.942 l 32.17,-71.8201 29.19,69.1291 c -6.56,15.172 -11.62,20.547 -22.05,21.758 l -7.14,0.875 v 5.359 h 61.64 v -5.359 c -14.58,-0.297 -19.04,-4.75 -12.8,-19.641 l 29.19,-70.9218 28.61,69.7028 c 6.54,15.801 1.5,20.86 -17.29,20.86 v 5.359 h 50.05 v -5.359 c -11.31,-1.164 -18.48,-6.836 -24.43,-21.43 l -38.41,-93.8672 h -8.04"
             style="fill:#231f20;fill-opacity:1;fill-rule:nonzero;stroke:none"
             id="path30381"
             inkscape:connector-curvature="0" />
          <path
             d="M 0.0429688,478.766 311.645,478.789 c 0,0 0.375,-147.641 0,-254.848 C 311.699,144.969 214.137,57.8789 155.758,54.8672 91.0352,60.0391 0.0429688,150.582 0.0429688,222.973 v 255.793"
             style="fill:#231f20;fill-opacity:1;fill-rule:nonzero;stroke:none"
             id="path30383"
             inkscape:connector-curvature="0" />
          <path
             d="m 153.539,96.8555 h 9.90625 v 274.496 H 153.539 Z"
             style="fill:#231f20;fill-opacity:1;fill-rule:nonzero;stroke:none"
             id="path30385"
             inkscape:connector-curvature="0" />
          <path
             d="m 223.922,373.035 c 8.844,0.047 23.14,-0.039 32.418,-0.039 2.879,0 7.601,0.852 4.961,-5.5 -2.352,-5.625 -5.727,-13.465 -7.184,-16.848 -4.879,0 -24.726,-0.007 -24.769,0.094 -1.59,3.676 -3.852,8.906 -6.727,15.543 -1.531,3.547 -2.289,6.75 1.301,6.75 z m -4.488,-96.203 h 48.929 c 14.426,0 15.746,-1.98 16.758,-5.086 -0.594,4.816 -3.711,29.449 -5.883,47.285 -0.57,4.657 -2.199,17.449 -8.652,25.078 -2.039,2.453 -3.024,3.684 -7.41,5.563 0.34,0.969 4.328,10.898 7.289,18.91 1.527,4.094 -0.121,8.172 -3.242,10.078 -2.731,1.633 -6.231,1.711 -8.715,1.711 -16.774,0 -29.723,-0.031 -34.891,-0.031 -8.961,0 -13.121,-5.703 -10.387,-12.578 2.082,-5.215 5.54,-14.11 7.118,-18.176 -11.024,-3.672 -14.66,-18.723 -16.262,-31.75 -2.66,-21.969 -6.274,-51.274 -6.524,-53.027 -0.39,-2.789 -0.851,-5.102 3.727,-5.321 8.691,-0.558 18.844,-0.617 35.934,-0.172 1.648,-0.921 3.789,-1.515 6.578,-1.418 2.781,0.047 4.804,0.774 6.254,1.809 6.976,0.254 14.902,0.566 23.972,0.941 -7.968,0.188 -15.429,0.411 -22.332,0.61 2.485,3.094 2.235,7.316 2,8.144 -1.043,-11.457 -15.914,-10.363 -12.234,1.789 -1.594,0 -5.734,0 -8.371,-2.152 -0.703,-1.777 -0.461,-4.746 1.234,-7.187 -9.652,0.414 -17.605,0.761 -23.363,1.093 -2.957,0.145 -4.379,2.278 -2.891,4.243 6.239,8.14 6.61,9.644 11.364,9.644"
             style="fill:#ffffff;fill-opacity:1;fill-rule:nonzero;stroke:none"
             id="path30387"
             inkscape:connector-curvature="0" />
          <path
             d="m 156.176,98.0469 c 0,-3.2344 -2.145,-5.8555 -4.821,-5.8555 -2.656,0 -4.816,2.6211 -4.816,5.8555 v 27.2341 c 0,3.192 2.16,5.821 4.816,5.821 2.676,0 4.821,-2.629 4.821,-5.821 V 98.0469"
             style="fill:#ffffff;fill-opacity:1;fill-rule:nonzero;stroke:none"
             id="path30389"
             inkscape:connector-curvature="0" />
          <path
             d="m 89.0156,421.484 c 1.5391,0.649 3.7422,0.489 5.7735,0.489 -2.2422,1.863 -4.293,2.601 -5.5196,2.918 -2.8828,10.898 -18.6484,7.941 -20.2109,-1.723 -0.5586,-3.492 -12.9414,-5.016 -27.1406,-24 -6.543,-8.719 -15.5782,-16.281 -18.3164,-18.027 -2.7578,-1.711 3.9531,-1.211 7.0546,2.082 2.9024,-2.942 8.6172,5.855 17.211,7.343 2.2734,0.368 30.8281,5.551 23.3047,21.899 10.0547,-12.938 -6.7071,-22.25 -17.2735,-23.281 0.9297,-0.489 6.4141,-0.914 7.0508,-1.157 1.5742,-0.562 -0.4765,-2.48 0.8125,-3.207 3.0781,-1.707 9.1797,-7.457 9.1797,-7.457 0,0 3.4766,1.18 1.9024,2.754 -4.7032,3.106 -5.9883,4.047 -7.1876,5.985 -0.0859,0.113 -1.5976,2.976 1.4961,3.8 4.4805,0.356 19.1172,5.555 16.6289,23.922 -0.4023,2.895 1.6368,6.043 5.2344,7.66"
             style="fill:#ffffff;fill-opacity:1;fill-rule:nonzero;stroke:none"
             id="path30391"
             inkscape:connector-curvature="0" />
          <path
             d="m 86.8711,424.535 c 0,-0.961 -0.7149,-1.719 -1.5859,-1.719 -0.8516,0 -1.5743,0.758 -1.5743,1.719 0,0.938 0.7227,1.735 1.5743,1.735 0.871,0 1.5859,-0.797 1.5859,-1.735"
             style="fill:#231f20;fill-opacity:1;fill-rule:nonzero;stroke:none"
             id="path30393"
             inkscape:connector-curvature="0" />
          <path
             d="m 160.648,93.5625 h 5.28125 v 38.5547 H 160.648 Z"
             style="fill:#ffffff;fill-opacity:1;fill-rule:nonzero;stroke:none"
             id="path30395"
             inkscape:connector-curvature="0" />
          <path
             d="m 170.629,87.5469 c 1.566,1.6484 2.516,3.875 2.516,6.3281 0,5.0391 -4.098,9.176 -9.168,9.176 h -15.61 c -5.066,0 -9.187,-4.1369 -9.187,-9.176 0,-2.3828 0.914,-4.4961 2.375,-6.125 -1.891,-1.7148 -5.254,-4.9688 -6.2,-6.0703 10.485,-4.6289 30.375,-4.25 41.602,0.0586 -1.059,0.9062 -4.645,4.2031 -6.328,5.8086"
             style="fill:#ffffff;fill-opacity:1;fill-rule:nonzero;stroke:none"
             id="path30397"
             inkscape:connector-curvature="0" />
          <path
             d="m 155.938,404.086 c 0,-0.234 -0.032,-0.18 -0.032,0.059 -6.765,6.066 -28.535,8.644 -42.523,5.074 0.929,-1.696 2.051,-7.133 2.648,-9.309 20.645,6.875 39.875,-3.164 39.875,-3.164 0,0.051 0,0.137 0.012,0.195 0,-0.058 0,-0.168 0.02,-0.222 0,0 19.234,10.027 39.902,3.148 0.562,2.172 1.719,7.59 2.637,9.262 -14.004,3.613 -35.762,1.035 -42.539,-5.043"
             style="fill:#ffffff;fill-opacity:1;fill-rule:nonzero;stroke:none"
             id="path30399"
             inkscape:connector-curvature="0" />
          <path
             d="m 162.195,158.691 h 3.07422 v 212.68 H 162.195 Z"
             style="fill:#ffffff;fill-opacity:1;fill-rule:nonzero;stroke:none"
             id="path30401"
             inkscape:connector-curvature="0" />
          <path
             d="m 146.684,174.008 h 9.87109 V 371.414 H 146.684 Z"
             style="fill:#ffffff;fill-opacity:1;fill-rule:nonzero;stroke:none"
             id="path30403"
             inkscape:connector-curvature="0" />
          <path
             d="m 165.977,295.434 c 0.64,2.308 0.941,8.023 0,9.816 -4.625,0 -11.813,-0.047 -16.012,0.062 9.597,-3.5 16.012,-9.878 16.012,-9.878"
             style="fill:#231f20;fill-opacity:1;fill-rule:nonzero;stroke:none"
             id="path30405"
             inkscape:connector-curvature="0" />
          <path
             d="m 131.391,119.73 c 5.511,-0.835 35.117,-2.226 35.117,-2.226 l 4.832,-12.559 c 0,0 -25.848,0.676 -39.949,14.785"
             style="fill:#231f20;fill-opacity:1;fill-rule:nonzero;stroke:none"
             id="path30407"
             inkscape:connector-curvature="0" />
          <path
             d="m 252.535,209.754 c -9.254,5.984 -20.488,1.375 -32.648,11.578 0.047,-31.676 23.117,-38.027 10.133,-46.469 -11.575,-7.574 -22.778,-9.449 -34.415,-8.48 0.989,1.582 2.739,4.465 4.122,5.887 -14.258,1.847 -26.696,0.804 -31.907,0.195 -17.758,5.23 -37.449,11.801 -61.164,12.172 4.301,-3.508 8.539,-9.602 8.539,-20.102 -3.597,14.164 -18.3395,21.574 -25.57,24.399 -2.1641,0.82 -4.1953,1.199 -6.3008,1.55 -1.0625,-1.457 -3.3476,-3.886 -7.1875,-5.324 -2.1953,1.156 -3.9883,-0.914 -3.6914,-1.586 0.1328,-0.347 0.0899,-0.676 -0.1797,-1.015 -2.1094,-2.747 -9.0664,-1.43 -14.2344,0.367 -5.9726,2.043 -5.7304,-2.067 -4.5742,-4.117 1.875,-3.317 3.6836,-5.45 4.5703,-7.301 7.9141,-16.172 13.7852,-26.797 31.3477,-36.844 16.684,-12.305 37.66,-18.652 58.992,-19.387 7.789,-2.793 25.672,-7.715 48.086,-4.121 -4.348,2.922 -8.711,5.817 -10.148,8.735 28.492,8.222 53.121,26.949 63.207,55.203 0.105,0.312 0.218,0.629 0.324,0.941 1.805,6.188 -4.188,14.403 -12.703,6.305 7.379,17.715 19.578,10.047 16.992,-0.43 9.742,13.098 22.766,27.195 40.156,32.539 -15.898,7.317 -31.488,0.977 -41.746,-4.695"
             style="fill:#ffffff;fill-opacity:1;fill-rule:nonzero;stroke:none"
             id="path30409"
             inkscape:connector-curvature="0" />
          <path
             d="m 166.277,237.383 c 0.661,2.332 0.934,8.055 0,9.812 -4.632,0 -11.8,-0.058 -15.984,0.071 9.566,-3.512 15.984,-9.883 15.984,-9.883"
             style="fill:#231f20;fill-opacity:1;fill-rule:nonzero;stroke:none"
             id="path30411"
             inkscape:connector-curvature="0" />
          <path
             d="m 173.008,256.039 c 0,-5.094 -4.168,-9.199 -9.301,-9.199 h -15.824 c -5.129,0 -9.309,4.105 -9.309,9.199 0,5.074 4.18,9.16 9.309,9.16 h 15.824 c 5.133,0 9.301,-4.086 9.301,-9.16"
             style="fill:#ffffff;fill-opacity:1;fill-rule:nonzero;stroke:none"
             id="path30413"
             inkscape:connector-curvature="0" />
          <path
             d="m 163.438,249.965 c -9.282,-0.094 -17.25,0 -17.25,0 0,0 13.07,0.781 21.355,9.621 2.18,-1.438 2.59,-9.598 -4.105,-9.621"
             style="fill:#231f20;fill-opacity:1;fill-rule:nonzero;stroke:none"
             id="path30415"
             inkscape:connector-curvature="0" />
          <path
             d="m 166.438,178.523 c 0.64,2.286 0.917,8.047 0,9.801 -4.641,0 -11.797,-0.058 -16,0.074 9.585,-3.5 16,-9.875 16,-9.875"
             style="fill:#231f20;fill-opacity:1;fill-rule:nonzero;stroke:none"
             id="path30417"
             inkscape:connector-curvature="0" />
          <path
             d="m 173.129,197.445 c 0,-5.093 -4.149,-9.199 -9.289,-9.199 h -15.813 c -5.144,0 -9.293,4.106 -9.293,9.199 0,5.078 4.149,9.141 9.293,9.141 h 15.813 c 5.14,0 9.289,-4.063 9.289,-9.141"
             style="fill:#ffffff;fill-opacity:1;fill-rule:nonzero;stroke:none"
             id="path30419"
             inkscape:connector-curvature="0" />
          <path
             d="m 163.555,191.383 c -9.285,-0.09 -17.227,0.008 -17.227,0.008 0,0 13.035,0.722 21.336,9.629 2.176,-1.473 2.602,-9.598 -4.109,-9.637"
             style="fill:#231f20;fill-opacity:1;fill-rule:nonzero;stroke:none"
             id="path30421"
             inkscape:connector-curvature="0" />
          <path
             d="m 141.918,329 h 27.9609 v 27.4453 H 141.918 Z"
             style="fill:#ffffff;fill-opacity:1;fill-rule:nonzero;stroke:none"
             id="path30423"
             inkscape:connector-curvature="0" />
          <path
             d="m 169.879,329.039 c -4.742,-1.148 -4.441,-5.121 -4.609,-6.594 0,0 -11.278,-0.074 -18.676,0 0.051,0.426 0.226,5.864 -4.676,6.594 0,0 26.172,-0.031 27.961,0"
             style="fill:#ffffff;fill-opacity:1;fill-rule:nonzero;stroke:none"
             id="path30425"
             inkscape:connector-curvature="0" />
          <path
             d="m 158.246,328.66 h 7.57812 v 27.7852 H 158.246 Z"
             style="fill:#231f20;fill-opacity:1;fill-rule:nonzero;stroke:none"
             id="path30427"
             inkscape:connector-curvature="0" />
          <path
             d="m 67.3203,185.766 c -1.4023,0.511 -2.168,1.711 -2.5508,2.613 -0.8984,1.992 -0.8672,4.683 0.1094,7.211 0.9688,2.492 2.7344,4.523 4.7891,5.43 0.8945,0.375 2.25,0.718 3.6484,0.199 2.0547,-0.828 3.2266,-3.125 3.2266,-5.879 0,-1.278 -0.25,-2.629 -0.7578,-3.949 -0.961,-2.508 -2.7618,-4.539 -4.7774,-5.45 -0.9023,-0.379 -2.2539,-0.761 -3.6875,-0.175 z m 0.8633,18.586 c -2.9531,-1.305 -5.4102,-4 -6.7188,-7.442 -1.3476,-3.449 -1.3476,-7.082 -0.0586,-10.055 0.9454,-2.132 2.5821,-3.761 4.6016,-4.543 2,-0.753 4.3086,-0.652 6.461,0.309 2.9453,1.27 5.4023,3.988 6.7343,7.402 2.3946,6.176 0.3203,12.692 -4.5547,14.606 -2.0117,0.789 -4.3164,0.691 -6.4648,-0.277"
             style="fill:#ffffff;fill-opacity:1;fill-rule:nonzero;stroke:none"
             id="path30429"
             inkscape:connector-curvature="0" />
          <path
             d="m 72.3203,186.738 c -1.5781,0.504 -5.4648,1.641 -10.1367,1.793 -3.3125,0.11 -6.5469,2.02 -6.3516,2.989 0.1875,0.707 1.043,1.074 2.4336,1.261 3.1992,0.461 10.1328,0.074 17.6289,-1.125 -0.6172,-1.808 -1.6367,-3.488 -3.5742,-4.918"
             style="fill:#ffffff;fill-opacity:1;fill-rule:nonzero;stroke:none"
             id="path30431"
             inkscape:connector-curvature="0" />
          <path
             d="m 173.238,314.336 c 0,-5.098 -4.152,-9.238 -9.316,-9.238 h -15.797 c -5.156,0 -9.309,4.14 -9.309,9.238 0,5.047 4.153,9.156 9.309,9.156 h 15.797 c 5.164,0 9.316,-4.109 9.316,-9.156"
             style="fill:#ffffff;fill-opacity:1;fill-rule:nonzero;stroke:none"
             id="path30433"
             inkscape:connector-curvature="0" />
          <path
             d="m 163.684,308.25 c -9.289,-0.098 -17.274,0.012 -17.274,0.012 0,0 13.063,0.781 21.363,9.636 2.184,-1.48 2.594,-9.605 -4.089,-9.648"
             style="fill:#231f20;fill-opacity:1;fill-rule:nonzero;stroke:none"
             id="path30435"
             inkscape:connector-curvature="0" />
          <path
             d="m 101.715,181.195 c 10.078,-6.738 13.48,-16.66 13.48,-16.66 0,0 3.352,8.297 -1.234,14.738 9.168,2.68 25.094,-1.503 39.461,-7.128 21.09,-8.258 36.867,-11.008 52.933,-8.258 16.051,2.734 24.504,6.07 29.68,14.07 2.742,4.297 10.86,3.395 8.567,-3.035 -2.29,-6.426 -12.243,-24.785 -31.063,-29.86 -18.812,-5.027 -49.863,-13.464 -95.773,-1.972 -12.278,3.07 -41.1293,10.738 -52.9222,25.89 -2.3633,3.04 -2.9844,8.692 -3.0899,9.579 -0.1445,1.097 0.5859,1.664 3.1641,1.214 8.0859,-1.429 9.6289,1.672 12.625,5.079 3.3164,0.429 14.9922,2.453 24.172,-3.657"
             style="fill:#ffffff;fill-opacity:1;fill-rule:nonzero;stroke:none"
             id="path30437"
             inkscape:connector-curvature="0" />
          <path
             d="m 241.23,176.219 c -14.035,-26.68 -41.164,-30.821 -69.554,-31.688 -11.516,-0.324 -23.031,1.117 -32.926,3.649 8.34,-0.848 16.977,-0.168 22.246,1.652 -2.055,10.703 -20.316,18.477 -33.051,19.176 -2.418,2.738 -3.109,6.324 -8.965,8.383 4.141,-3.782 3.793,-9.082 5.856,-11.821 10.422,-2.117 23.137,-4.781 29.266,-12.972 -2.164,-2.786 -21.012,-1.231 -31.297,1.101 -4.438,1.633 -9.055,4.313 -11.512,9.11 -4.902,-5.5 -12.6953,-3.524 -20.711,0.476 -0.1211,3.102 -2.0312,5.84 -6.1718,6.641 0.8984,-1.352 1.1328,-2.77 1.1328,-3.914 -9.0547,5.218 -17.6836,11.59 -22.0157,11.261 -6.1484,-0.472 13.418,-34.796 29.9415,-38.464 49.0822,-28.293 131.1012,-15.864 150.5352,31.902 2.738,6.883 0.328,11.367 -2.774,5.508"
             style="fill:#231f20;fill-opacity:1;fill-rule:nonzero;stroke:none"
             id="path30439"
             inkscape:connector-curvature="0" />
          <path
             d="m 86.2109,166.473 c 0.2696,-2.996 -2.0742,-5.684 -5.2695,-5.989 -3.168,-0.363 -5.9883,1.836 -6.293,4.852 -0.289,3.012 2.0469,5.699 5.2227,6.012 3.1914,0.312 6.0117,-1.871 6.3398,-4.875"
             style="fill:#ffffff;fill-opacity:1;fill-rule:nonzero;stroke:none"
             id="path30441"
             inkscape:connector-curvature="0" />
          <path
             d="m 83.4375,165.902 c 0,-1.48 -1.3711,-2.656 -3.0313,-2.656 -1.6445,0 -3.0078,1.176 -3.0078,2.656 0,1.477 1.3633,2.676 3.0078,2.676 1.6602,0 3.0313,-1.199 3.0313,-2.676"
             style="fill:#231f20;fill-opacity:1;fill-rule:nonzero;stroke:none"
             id="path30443"
             inkscape:connector-curvature="0" />
          <path
             d="m 224.102,214.832 c -3.375,-11.625 11.011,-27.293 11.011,-27.293 0,0 -6.515,20.332 -11.011,27.293"
             style="fill:#ffffff;fill-opacity:1;fill-rule:nonzero;stroke:none"
             id="path30445"
             inkscape:connector-curvature="0" />
          <path
             d="m 234.195,212.332 c -4.949,-6.801 4.36,-22.293 4.36,-22.293 0,0 -0.508,12.387 -4.36,22.293"
             style="fill:#ffffff;fill-opacity:1;fill-rule:nonzero;stroke:none"
             id="path30447"
             inkscape:connector-curvature="0" />
          <path
             d="m 249.781,194.652 c 3.914,8.493 11.723,16.973 20,19.973 -17.23,-2.082 -21.129,-13.531 -20,-19.973"
             style="fill:#ffffff;fill-opacity:1;fill-rule:nonzero;stroke:none"
             id="path30449"
             inkscape:connector-curvature="0" />
          <path
             d="m 155.895,452.211 c -7.262,14.086 -17.665,3.242 -35.868,8.871 -3.215,-14.894 -6.429,-41.551 -7.336,-46.133 12.438,-3.742 23.371,7.887 38.239,-1.797 -1.594,19.219 4.593,35.223 4.593,35.223 0,0 0.196,2.352 0.372,3.836"
             style="fill:#ffffff;fill-opacity:1;fill-rule:nonzero;stroke:none"
             id="path30451"
             inkscape:connector-curvature="0" />
          <path
             d="m 191.82,461.148 c -18.207,-5.632 -28.617,5.207 -35.879,-8.878 -0.011,-4.805 -0.035,-40.313 0.039,-42.958 17.454,16.301 29.43,1.575 43.18,5.711 -0.914,4.575 -4.137,31.215 -7.34,46.125"
             style="fill:#ffffff;fill-opacity:1;fill-rule:nonzero;stroke:none"
             id="path30453"
             inkscape:connector-curvature="0" />
          <path
             d="m 150.875,371.352 h 10.1211 v 11.7617 H 150.875 Z"
             style="fill:#ffffff;fill-opacity:1;fill-rule:nonzero;stroke:none"
             id="path30455"
             inkscape:connector-curvature="0" />
          <path
             d="m 156,394.395 5.039,-8.793 -10.211,-0.051 5.172,8.844"
             style="fill:#ffffff;fill-opacity:1;fill-rule:nonzero;stroke:none"
             id="path30457"
             inkscape:connector-curvature="0" />
          <path
             d="m 70.8086,359.648 v 0.063 c -0.0703,0.031 -0.0664,-0.008 0,-0.063"
             style="fill:#199445;fill-opacity:1;fill-rule:nonzero;stroke:none"
             id="path30459"
             inkscape:connector-curvature="0" />
          <path
             d="m 111.559,301.992 c 0,0 13.886,6.856 15.261,13.906 -4.3,4.129 -15.16,4.579 -15.16,4.579 0,0 12.473,9.5 11.949,16.378 -6.226,2.911 -17.304,1.219 -17.304,1.219 5.136,7.117 6.605,12.77 6.406,17.742 -6.484,1.082 -16.4844,-2.761 -16.4844,-2.761 0,0 3.3476,11.953 0.0546,18.152 -5.996,1.605 -14.4531,-8.961 -14.4531,-8.961 0,0 -3,13.066 -10.0156,20.02 -7.043,-6.954 -10.1211,-20.02 -10.1211,-20.02 0,0 -8.4492,10.566 -14.4687,8.961 -3.2539,-6.199 0.082,-18.152 0.082,-18.152 0,0 -10,3.843 -16.5156,2.761 -0.168,-4.972 1.3047,-10.625 6.4453,-17.742 0,0 -11.1133,1.692 -17.3086,-1.219 -0.5274,-6.878 11.9336,-16.378 11.9336,-16.378 0,0 -10.8672,-0.45 -15.1446,-4.579 1.379,-7.05 15.2735,-13.906 15.2735,-13.906 0,0 -8.2735,-1.699 -13.3125,-7.418 3.2031,-4.277 10.4492,-8.359 16.1094,-9.297 -4.8985,-3.941 -7.629,-7.015 -8.8672,-9.324 7.9453,-6.426 24.625,-7.332 41.289,-2.144 0,-3.196 0.0586,-28.922 -3.8437,-40.704 h 16.7929 c -3.8828,11.782 -3.8359,37.508 -3.8359,40.704 16.6719,-5.188 33.3637,-4.282 41.2847,2.144 -1.238,2.309 -3.957,5.383 -8.835,9.324 5.648,0.938 12.875,5.02 16.093,9.297 -5.066,5.719 -13.304,7.418 -13.304,7.418"
             style="fill:#ffffff;fill-opacity:1;fill-rule:nonzero;stroke:none"
             id="path30461"
             inkscape:connector-curvature="0" />
          <path
             d="m 96.3711,301.531 c 1.5742,0.86 9.6369,3.332 13.7499,10.52 -4.113,4 -13.7499,4.148 -13.7499,4.148 0,0 8.5739,5.641 11.4729,14.094 -7.356,2.137 -14.9963,0 -14.9963,0 0,0 6.2695,8.875 7.0468,16.367 -7.0468,-0.765 -14.5351,-4.472 -14.5351,-4.472 2.125,4.624 3.1953,11.171 2.2812,16.855 -3.5078,-0.684 -6.7812,-4.5 -8.6484,-7.207 -1.7852,5.707 -4.8086,7.504 -6.8789,8.652 -3.4336,-5.043 -4.3242,-8.379 -3.6992,-15.207 1.1601,1.145 2.9961,2.965 5.9921,4.68 1.8204,-9.848 -1.6874,-17.016 -1.6874,-17.016 0,0 4.3398,2.825 10.082,3.504 0.2422,-5.426 -1.7461,-11.051 -7.4844,-17.715 0,0 5.043,3.047 10.8789,3.512 -0.9414,-7.66 -5.6094,-12.773 -10.4336,-17.148 3.2188,1.519 8.7344,1.375 12.5547,0.152 -1.9766,-5.816 -6.5195,-8.738 -13.1406,-12.379 4.1015,0 8.3203,-0.551 10.6836,-2.144 -2.6641,-4.989 -9.1641,-7.348 -13.668,-8.637 10.4141,-3.969 20.4922,-5.625 30.3676,-3.235 -0.684,2.95 -4.434,6.52 -8.7973,9.032 3.9961,0.906 9.9453,2.156 15.1483,6.593 -3.363,3.375 -7.5,5.653 -12.5389,7.051"
             style="fill:#231f20;fill-opacity:1;fill-rule:nonzero;stroke:none"
             id="path30463"
             inkscape:connector-curvature="0" />
          <path
             d="M 40.5703,75.9258 C 42.9297,68.0508 36.6367,52.8125 41.1094,44.0117 37.2891,44.1406 13.0039,39.6914 9.41406,42.8398 5.87891,45.9844 -3.57812,52.6836 5.87891,57.8281 15.3359,62.9375 39.2617,72.1367 40.5703,75.9258"
             style="fill:#ffffff;fill-opacity:1;fill-rule:nonzero;stroke:none"
             id="path30465"
             inkscape:connector-curvature="0" />
          <path
             d="m 272.402,76.7344 c 2.774,-25.2305 -1.457,-28.0625 -1.195,-35.3125 2.379,-0.6172 21.688,-4.6289 28.504,-0.9727 6.832,3.6914 11.559,12.6172 8.402,16.293 -3.14,3.6953 -18.894,13.6719 -25.187,14.7109 -6.305,1.0899 -8.809,3.4063 -10.524,5.2813"
             style="fill:#ffffff;fill-opacity:1;fill-rule:nonzero;stroke:none"
             id="path30467"
             inkscape:connector-curvature="0" />
          <path
             d="m 302.555,64.5547 c -10.485,5.6289 -26.071,9.0273 -34.879,21.0664 -3.301,-12.1172 4.711,-19.0742 4.386,-36.9063 7.418,13.8477 1.313,17.2461 2.563,23.8086 5.977,-7.6054 14.93,-8.7109 21.187,-11.957 7.981,-4.1758 12.876,-13.3945 -3.644,-13.3398 -32.258,0.0742 -239.2578,-0.0352 -272.2227,-0.0352 -17.04686,0 -12.05077,9.1445 -4.0703,13.3164 6.2656,3.2461 15.3281,4.3555 21.2812,12.1758 1.2461,-6.5547 -4.9335,-9.9219 2.5118,-23.7734 -0.3242,17.8359 7.6093,24.4921 4.457,36.7109 C 35.332,73.582 19.5078,70.1836 8.98828,64.5547 0.0625,59.8086 0.0429688,56.6367 0.0429688,41.3359 0.0429688,31.0781 0.0820312,18.1406 0,9.46875 -0.0585938,3.37891 7.03125,-0.226562 15.4922,0.0078125 c 38.7812,0 241.7778,0 280.5778,0 8.434,-0.2343745 15.629,3.2773475 15.629,9.3710975 0.059,8.69529 -0.09,21.79689 0,32.04299 0.137,15.7265 -0.222,18.3867 -9.144,23.1328"
             style="fill:#231f20;fill-opacity:1;fill-rule:nonzero;stroke:none"
             id="path30469"
             inkscape:connector-curvature="0" />
          <path
             d="m 15.6367,33.9805 h 6.0039 l 4.1758,-11.6328 c 0.0859,-0.2422 0.3125,-1.1797 0.6719,-2.7891 0.4023,1.6094 0.6523,2.5469 0.7578,2.7891 l 4.082,11.6328 h 6.0391 l -8.711,-20.793 h -4.2968 l -8.7227,20.793"
             style="fill:#ffffff;fill-opacity:1;fill-rule:nonzero;stroke:none"
             id="path30471"
             inkscape:connector-curvature="0" />
          <path
             d="m 40.6406,13.1875 h 5.74609 v 20.793 H 40.6406 Z"
             style="fill:#ffffff;fill-opacity:1;fill-rule:nonzero;stroke:none"
             id="path30473"
             inkscape:connector-curvature="0" />
          <path
             d="m 63.5078,20.9219 -2.1172,6.8711 c -0.0937,0.3476 -0.3359,1.2656 -0.7109,2.7968 -0.3789,-1.5312 -0.6328,-2.4492 -0.7227,-2.7968 l -2.0898,-6.8711 z m -6.3945,13.0586 h 7.0976 l 7.168,-20.793 h -5.6484 l -1.0235,3.7344 h -8.0468 l -1.0938,-3.7344 h -5.6211 l 7.168,20.793"
             style="fill:#ffffff;fill-opacity:1;fill-rule:nonzero;stroke:none"
             id="path30475"
             inkscape:connector-curvature="0" />
          <path
             d="m 82.5898,33.9805 h 6.0196 l 4.1484,-11.6328 c 0.1016,-0.2422 0.3125,-1.1797 0.6992,-2.7891 0.3672,1.6094 0.6289,2.5469 0.7188,2.7891 l 4.1289,11.6328 h 6.0073 l -8.7026,-20.793 h -4.3008 l -8.7188,20.793"
             style="fill:#ffffff;fill-opacity:1;fill-rule:nonzero;stroke:none"
             id="path30477"
             inkscape:connector-curvature="0" />
          <path
             d="m 107.449,33.9805 h 12.731 v -4.5782 h -7.215 v -3.6171 h 6.801 v -4.4297 h -6.801 v -3.5196 h 7.215 v -4.6484 h -12.731 v 20.793"
             style="fill:#ffffff;fill-opacity:1;fill-rule:nonzero;stroke:none"
             id="path30479"
             inkscape:connector-curvature="0" />
          <path
             d="m 131.738,24.1406 c 2.364,0 3.512,0.75 3.512,2.6016 0,2.1523 -1.074,2.8516 -3.43,2.8516 h -1.132 v -5.4532 z m -6.371,9.8399 h 5.934 c 0.113,0 0.226,0 0.34,0 2.871,0 5.089,-0.0352 6.875,-1.4024 1.488,-1.1719 2.3,-2.9258 2.3,-5.1093 0,-3.1954 -1.617,-5.254 -4.628,-5.9219 l 5.652,-8.3594 h -6.402 l -4.75,8.1406 v -8.1406 h -5.321 v 20.793"
             style="fill:#ffffff;fill-opacity:1;fill-rule:nonzero;stroke:none"
             id="path30481"
             inkscape:connector-curvature="0" />
          <path
             d="m 145.582,13.1875 h 5.73047 v 20.793 H 145.582 Z"
             style="fill:#ffffff;fill-opacity:1;fill-rule:nonzero;stroke:none"
             id="path30483"
             inkscape:connector-curvature="0" />
          <path
             d="m 160.312,29.0586 h -4.613 v 4.9219 h 14.926 v -4.9219 h -4.652 V 13.1875 h -5.661 v 15.8711"
             style="fill:#ffffff;fill-opacity:1;fill-rule:nonzero;stroke:none"
             id="path30485"
             inkscape:connector-curvature="0" />
          <path
             d="m 185.957,20.9219 -2.125,6.8711 c -0.086,0.3476 -0.316,1.2656 -0.695,2.7968 -0.364,-1.5312 -0.637,-2.4492 -0.739,-2.7968 l -2.082,-6.8711 z m -6.387,13.0586 h 7.071 l 7.175,-20.793 h -5.617 l -1.058,3.7344 h -8.039 l -1.075,-3.7344 h -5.648 l 7.191,20.793"
             style="fill:#ffffff;fill-opacity:1;fill-rule:nonzero;stroke:none"
             id="path30487"
             inkscape:connector-curvature="0" />
          <path
             d="m 203.125,17.0664 c 1.559,0 2.59,0.9102 2.59,2.1367 0,1.6602 -1.137,2.1524 -3.492,2.7735 -3.731,0.9609 -5.563,2.4765 -5.563,5.7187 0,3.875 2.809,6.7461 7.168,6.7461 2.328,0 4.356,-0.5976 6.137,-1.8398 l -1.762,-4.0625 c -1.305,1.1132 -2.683,1.6562 -3.969,1.6562 -1.402,0 -2.316,-0.7617 -2.316,-1.7422 0,-1.4843 1.449,-1.8164 3.316,-2.3164 3.676,-0.9726 5.739,-2.332 5.739,-6.1875 0,-4.289 -3.09,-7.3242 -7.961,-7.3242 -2.934,0 -5.16,0.9492 -7.383,3.0664 l 2.555,4.2109 c 1.671,-1.8984 3.296,-2.8359 4.941,-2.8359"
             style="fill:#ffffff;fill-opacity:1;fill-rule:nonzero;stroke:none"
             id="path30489"
             inkscape:connector-curvature="0" />
          <path
             d="m 223.355,33.9805 h 6.02 l 4.16,-11.6328 c 0.078,-0.2422 0.32,-1.1797 0.676,-2.7891 0.391,1.6094 0.648,2.5469 0.73,2.7891 l 4.125,11.6328 h 6.028 l -8.715,-20.793 h -4.301 l -8.723,20.793"
             style="fill:#ffffff;fill-opacity:1;fill-rule:nonzero;stroke:none"
             id="path30491"
             inkscape:connector-curvature="0" />
          <path
             d="m 248.375,13.1875 h 5.72266 v 20.793 H 248.375 Z"
             style="fill:#ffffff;fill-opacity:1;fill-rule:nonzero;stroke:none"
             id="path30493"
             inkscape:connector-curvature="0" />
          <path
             d="m 263.098,29.0586 h -4.614 v 4.9219 h 14.93 V 29.0586 H 268.75 V 13.1875 h -5.652 v 15.8711"
             style="fill:#ffffff;fill-opacity:1;fill-rule:nonzero;stroke:none"
             id="path30495"
             inkscape:connector-curvature="0" />
          <path
             d="m 288.73,20.9219 -2.125,6.8711 c -0.074,0.3476 -0.296,1.2656 -0.671,2.7968 -0.407,-1.5312 -0.645,-2.4492 -0.743,-2.7968 l -2.078,-6.8711 z m -6.382,13.0586 h 7.09 l 7.171,-20.793 h -5.64 l -1.035,3.7344 h -8.043 l -1.086,-3.7344 h -5.633 l 7.176,20.793"
             style="fill:#ffffff;fill-opacity:1;fill-rule:nonzero;stroke:none"
             id="path30497"
             inkscape:connector-curvature="0" />
          <path
             d="m 167.207,98.9688 c 1.367,-1.6407 2.309,-9.336 -4.363,-9.8829 -11.489,-0.9023 -17.004,0.25 -17.004,0.25 0,0 15.398,1.8125 21.367,9.6329"
             style="fill:#231f20;fill-opacity:1;fill-rule:nonzero;stroke:none"
             id="path30499"
             inkscape:connector-curvature="0" />
          <path
             d="m 218.98,334.805 c 0.7,9.418 5.153,11.621 11.258,11.48 3.422,-0.078 8.606,-0.129 21.145,-0.027 -7.059,-0.633 -15.863,-4.344 -17.012,-13.535 -1.07,-8.535 -1.141,-38.11 -1.351,-50.711 -6.204,-0.246 -14.497,-0.016 -16.325,-0.489 0.91,13.09 1.594,43.875 2.285,53.282"
             style="fill:#231f20;fill-opacity:1;fill-rule:nonzero;stroke:none"
             id="path30501"
             inkscape:connector-curvature="0" />
          <path
             d="M 1623.33,411.133 V 63.0625"
             style="fill:#231f20;fill-opacity:1;fill-rule:nonzero;stroke:none"
             id="path30503"
             inkscape:connector-curvature="0" />
          <path
             d="M 1623.33,411.133 V 63.0625"
             style="fill:none;stroke:#231f20;stroke-width:5;stroke-linecap:butt;stroke-linejoin:miter;stroke-miterlimit:4;stroke-dasharray:none;stroke-opacity:1"
             id="path30505"
             inkscape:connector-curvature="0" />
          <path
             d="m 1724.69,315.629 c 0,-22.5 14.54,-35.645 40.03,-35.645 22.7,0 35.64,10.954 35.64,28.278 0,18.519 -9.95,24.297 -33.25,30.269 l -13.54,3.383 c -26.29,6.774 -39.03,15.531 -39.03,38.832 0,22.699 17.92,38.434 46.99,38.434 30.07,0 47.79,-16.133 48.19,-43.614 h -13.54 c -0.2,20.512 -12.94,31.86 -35.25,31.86 -21.1,0 -32.85,-9.957 -32.85,-27.078 0,-13.543 7.36,-20.309 24.09,-24.493 l 16.73,-4.179 c 31.07,-7.77 45,-18.321 45,-42.02 0,-25.488 -18.71,-41.418 -49.38,-41.418 -34.25,0 -53.37,16.727 -53.37,46.395 v 0.996 h 13.54"
             style="fill:#231f20;fill-opacity:1;fill-rule:nonzero;stroke:none"
             id="path30507"
             inkscape:connector-curvature="0" />
          <path
             d="m 1919.22,307.867 c -2.18,-23.699 -18.52,-38.234 -43.01,-38.234 -27.47,0 -45.2,19.914 -45.2,53.566 0,34.649 17.92,54.961 46,54.961 23.3,0 39.63,-14.344 40.82,-35.445 h -11.55 c -1.99,15.133 -13.74,24.887 -29.27,24.887 -19.92,0 -33.66,-15.727 -33.66,-43.407 0,-28.078 13.74,-44.011 33.86,-44.011 15.93,0 27.48,10.156 30.07,27.683 h 11.94"
             style="fill:#231f20;fill-opacity:1;fill-rule:nonzero;stroke:none"
             id="path30509"
             inkscape:connector-curvature="0" />
          <path
             d="m 1938.92,415.395 h 11.95 v -55.957 c 7.77,12.347 19.32,18.722 34.25,18.722 13.94,0 25.29,-5.578 30.87,-14.539 4.18,-6.769 4.18,-15.93 4.18,-28.476 v -62.922 h -11.95 v 62.722 c 0,22.106 -3.79,32.657 -25.49,32.657 -18.92,0 -31.86,-13.141 -31.86,-34.45 v -60.929 h -11.95 v 143.172"
             style="fill:#231f20;fill-opacity:1;fill-rule:nonzero;stroke:none"
             id="path30511"
             inkscape:connector-curvature="0" />
          <path
             d="m 2088.85,280.184 c 22.1,0 35.24,15.332 35.24,43.609 0,28.277 -13.14,43.809 -35.24,43.809 -21.91,0 -35.05,-15.532 -35.05,-43.809 0,-28.277 13.14,-43.609 35.05,-43.609 z m 0,97.976 c 30.07,0 47.59,-19.719 47.59,-54.367 0,-34.648 -17.52,-54.16 -47.59,-54.16 -30.07,0 -47.39,19.512 -47.39,54.16 0,34.648 17.32,54.367 47.39,54.367"
             style="fill:#231f20;fill-opacity:1;fill-rule:nonzero;stroke:none"
             id="path30513"
             inkscape:connector-curvature="0" />
          <path
             d="m 2199.95,280.184 c 22.1,0 35.24,15.332 35.24,43.609 0,28.277 -13.14,43.809 -35.24,43.809 -21.91,0 -35.05,-15.532 -35.05,-43.809 0,-28.277 13.14,-43.609 35.05,-43.609 z m 0,97.976 c 30.06,0 47.59,-19.719 47.59,-54.367 0,-34.648 -17.53,-54.16 -47.59,-54.16 -30.07,0 -47.4,19.512 -47.4,54.16 0,34.648 17.33,54.367 47.4,54.367"
             style="fill:#231f20;fill-opacity:1;fill-rule:nonzero;stroke:none"
             id="path30515"
             inkscape:connector-curvature="0" />
          <path
             d="m 2270.02,272.223 h 11.9492 V 415.395 H 2270.02 Z"
             style="fill:#231f20;fill-opacity:1;fill-rule:nonzero;stroke:none"
             id="path30517"
             inkscape:connector-curvature="0" />
          <path
             d="m 2405.02,280.184 c 22.1,0 35.24,15.332 35.24,43.609 0,28.277 -13.14,43.809 -35.24,43.809 -21.9,0 -35.05,-15.532 -35.05,-43.809 0,-28.277 13.15,-43.609 35.05,-43.609 z m 0,97.976 c 30.07,0 47.59,-19.719 47.59,-54.367 0,-34.648 -17.52,-54.16 -47.59,-54.16 -30.07,0 -47.39,19.512 -47.39,54.16 0,34.648 17.32,54.367 47.39,54.367"
             style="fill:#231f20;fill-opacity:1;fill-rule:nonzero;stroke:none"
             id="path30519"
             inkscape:connector-curvature="0" />
          <path
             d="m 2479.68,365.809 h -15.13 v 9.757 h 15.13 v 18.922 c 0,15.727 7.76,22.297 24.49,22.297 1.99,0 3.98,-0.199 6.17,-0.594 v -10.753 c -2.59,0.195 -4.77,0.796 -6.57,0.796 -9.16,0 -12.14,-3.785 -12.14,-12.945 v -17.723 h 18.71 v -9.757 h -18.71 v -93.586 h -11.95 v 93.586"
             style="fill:#231f20;fill-opacity:1;fill-rule:nonzero;stroke:none"
             id="path30521"
             inkscape:connector-curvature="0" />
          <path
             d="m 1831.43,119.918 c -2.2,-31.668 -23.3,-50.7813 -57.15,-50.7813 -38.03,0 -62.33,28.0781 -62.33,75.8673 0,47.394 24.69,75.074 62.72,75.074 32.66,0 53.97,-18.125 55.36,-45.601 h -12.94 c -2.19,20.91 -18.32,33.847 -42.42,33.847 -30.46,0 -49.18,-22.301 -49.18,-63.121 0,-41.219 19.31,-64.3202 49.58,-64.3202 25.49,0 41.62,14.5352 43.41,39.0352 h 12.95"
             style="fill:#231f20;fill-opacity:1;fill-rule:nonzero;stroke:none"
             id="path30523"
             inkscape:connector-curvature="0" />
          <path
             d="m 1896.32,81.082 c 22.11,0 35.25,15.3321 35.25,43.609 0,28.278 -13.14,43.809 -35.25,43.809 -21.9,0 -35.05,-15.531 -35.05,-43.809 0,-28.2769 13.15,-43.609 35.05,-43.609 z m 0,97.977 c 30.07,0 47.6,-19.719 47.6,-54.368 0,-34.648 -17.53,-54.1598 -47.6,-54.1598 -30.07,0 -47.39,19.5118 -47.39,54.1598 0,34.649 17.32,54.368 47.39,54.368"
             style="fill:#231f20;fill-opacity:1;fill-rule:nonzero;stroke:none"
             id="path30525"
             inkscape:connector-curvature="0" />
          <path
             d="m 1965.21,176.465 h 11.15 V 159.34 c 6.97,12.746 18.52,19.719 32.85,19.719 15.54,0 26.09,-7.371 29.48,-20.313 6.96,13.34 18.51,20.313 33.25,20.313 22.5,0 33.45,-11.153 33.45,-33.856 V 73.1211 h -11.95 v 71.0859 c 0,16.731 -5.97,24.293 -21.9,24.293 -18.52,0 -30.27,-12.543 -30.27,-30.664 V 73.1211 h -11.94 v 69.8909 c 0,17.125 -6.97,25.488 -21.71,25.488 -18.12,0 -30.47,-12.742 -30.47,-31.461 V 73.1211 h -11.94 V 176.465"
             style="fill:#231f20;fill-opacity:1;fill-rule:nonzero;stroke:none"
             id="path30527"
             inkscape:connector-curvature="0" />
          <path
             d="m 2178.05,80.8828 c 22.11,0 35.25,15.336 35.25,43.8082 0,28.278 -13.14,43.809 -35.25,43.809 -22.1,0 -34.85,-15.332 -34.85,-43.809 0,-27.6754 13.15,-43.8082 34.85,-43.8082 z m -46.39,95.5822 h 11.94 v -18.516 c 7.97,14.336 19.52,21.11 36.24,21.11 28.08,0 45.8,-20.114 45.8,-54.368 0,-34.4488 -18.12,-54.359 -46.39,-54.359 -15.93,0 -27.48,6.7735 -35.65,20.7071 V 31.5039 h -11.94 V 176.465"
             style="fill:#231f20;fill-opacity:1;fill-rule:nonzero;stroke:none"
             id="path30529"
             inkscape:connector-curvature="0" />
          <path
             d="m 2327.58,73.1211 h -11.55 v 16.5273 c -7.97,-13.1445 -19.12,-19.3164 -34.65,-19.3164 -23.5,0 -35.05,12.3438 -35.05,36.641 v 69.492 h 11.95 v -66.703 c 0,-19.719 6.37,-28.8792 25.29,-28.8792 19.71,0 32.06,13.1445 32.06,34.4532 v 61.129 h 11.95 V 73.1211"
             style="fill:#231f20;fill-opacity:1;fill-rule:nonzero;stroke:none"
             id="path30531"
             inkscape:connector-curvature="0" />
          <path
             d="m 2370.17,176.465 h 19.12 v -9.758 h -19.12 V 91.4414 c 0,-7.5703 1,-11.1523 7.57,-11.1523 3.18,0 6.97,0.9961 11.55,1.9921 v -9.5624 c -5.38,-1.3907 -10.16,-2.1876 -14.74,-2.1876 -13.34,0 -16.33,6.7696 -16.33,20.9102 v 75.2656 h -14.13 v 9.758 h 14.13 v 29.672 h 11.95 v -29.672"
             style="fill:#231f20;fill-opacity:1;fill-rule:nonzero;stroke:none"
             id="path30533"
             inkscape:connector-curvature="0" />
          <path
             d="m 2409.59,176.465 h 11.95 V 73.1211 h -11.95 z m 0,39.828 h 11.95 v -17.926 h -11.95 v 17.926"
             style="fill:#231f20;fill-opacity:1;fill-rule:nonzero;stroke:none"
             id="path30535"
             inkscape:connector-curvature="0" />
          <path
             d="m 2449.41,176.465 h 11.55 v -16.524 c 7.77,12.743 19.12,19.118 34.25,19.118 14.34,0 25.49,-5.379 31.06,-14.539 3.99,-6.372 4.18,-14.536 4.18,-25.489 V 73.1211 h -11.94 v 64.5159 c 0,20.906 -4.58,30.863 -25.69,30.863 -18.92,0 -31.46,-12.945 -31.46,-34.449 V 73.1211 h -11.95 V 176.465"
             style="fill:#231f20;fill-opacity:1;fill-rule:nonzero;stroke:none"
             id="path30537"
             inkscape:connector-curvature="0" />
          <path
             d="m 2599.33,80.8828 c 21.72,0 35.06,15.5313 35.06,43.8082 0,28.278 -13.14,43.809 -35.06,43.809 -22.09,0 -35.23,-15.332 -35.23,-43.809 0,-27.8746 13.93,-43.8082 35.23,-43.8082 z m 46,-2.3867 c 0,-31.6602 -16.72,-47.7891 -48.99,-47.7891 -24.48,0 -40.01,11.9453 -41.41,30.2657 h 12.35 c 1.19,-12.3438 11.35,-19.7149 28.87,-19.7149 24.9,0 37.24,12.5469 37.24,36.8438 v 12.7422 c -8.16,-13.7383 -20.11,-20.5118 -35.84,-20.5118 -27.89,0 -45.8,20.1133 -45.8,54.359 0,34.055 18.32,54.368 45.8,54.368 15.92,0 27.87,-6.774 35.84,-20.516 v 17.922 h 11.94 V 78.4961"
             style="fill:#231f20;fill-opacity:1;fill-rule:nonzero;stroke:none"
             id="path30539"
             inkscape:connector-curvature="0" />
          <path
             d="m 2734.12,116.527 c 0,-22.4997 14.55,-35.6442 40.04,-35.6442 22.69,0 35.64,10.9531 35.64,28.2772 0,18.52 -9.96,24.297 -33.26,30.27 l -13.54,3.382 c -26.29,6.774 -39.04,15.532 -39.04,38.833 0,22.699 17.93,38.433 46.99,38.433 30.08,0 47.8,-16.133 48.21,-43.613 h -13.56 c -0.19,20.512 -12.93,31.859 -35.23,31.859 -21.12,0 -32.86,-9.957 -32.86,-27.078 0,-13.543 7.37,-20.308 24.09,-24.492 l 16.73,-4.18 c 31.06,-7.769 45,-18.32 45,-42.019 0,-25.4886 -18.73,-41.4183 -49.39,-41.4183 -34.24,0 -53.36,16.7266 -53.36,46.3943 v 0.996 h 13.54"
             style="fill:#231f20;fill-opacity:1;fill-rule:nonzero;stroke:none"
             id="path30541"
             inkscape:connector-curvature="0" />
          <path
             d="m 2928.65,108.766 c -2.19,-23.6996 -18.52,-38.2348 -43.01,-38.2348 -27.48,0 -45.2,19.9141 -45.2,53.5668 0,34.648 17.91,54.961 46,54.961 23.3,0 39.63,-14.344 40.82,-35.446 h -11.54 c -1.99,15.133 -13.75,24.887 -29.28,24.887 -19.92,0 -33.65,-15.727 -33.65,-43.406 0,-28.0784 13.73,-44.012 33.85,-44.012 15.93,0 27.48,10.1563 30.07,27.684 h 11.94"
             style="fill:#231f20;fill-opacity:1;fill-rule:nonzero;stroke:none"
             id="path30543"
             inkscape:connector-curvature="0" />
          <path
             d="m 2949.55,176.465 h 11.95 V 73.1211 h -11.95 z m 0,39.828 h 11.95 v -17.926 h -11.95 v 17.926"
             style="fill:#231f20;fill-opacity:1;fill-rule:nonzero;stroke:none"
             id="path30545"
             inkscape:connector-curvature="0" />
          <path
             d="m 3061.25,132.262 c -1,22.898 -13.34,36.238 -31.86,36.238 -18.52,0 -31.66,-13.539 -32.85,-36.238 z m -64.71,-10.36 c 0,-25.8825 13.53,-41.0192 33.46,-41.0192 16.11,0 27.87,8.9649 30.25,24.0972 h 11.95 c -2.58,-20.9097 -19.31,-34.648 -43.01,-34.648 -27.87,0 -45,19.711 -45,53.965 0,34.844 17.33,54.762 45.39,54.762 27.49,0 44.01,-18.922 44.01,-52.575 v -3.98 h -77.05 v -0.602"
             style="fill:#231f20;fill-opacity:1;fill-rule:nonzero;stroke:none"
             id="path30547"
             inkscape:connector-curvature="0" />
          <path
             d="m 3094.9,176.465 h 11.54 v -16.524 c 7.77,12.743 19.12,19.118 34.26,19.118 14.33,0 25.49,-5.379 31.05,-14.539 3.99,-6.372 4.18,-14.536 4.18,-25.489 V 73.1211 H 3164 v 64.5159 c 0,20.906 -4.59,30.863 -25.7,30.863 -18.91,0 -31.45,-12.945 -31.45,-34.449 V 73.1211 H 3094.9 V 176.465"
             style="fill:#231f20;fill-opacity:1;fill-rule:nonzero;stroke:none"
             id="path30549"
             inkscape:connector-curvature="0" />
          <path
             d="m 3285.25,108.766 c -2.19,-23.6996 -18.52,-38.2348 -43.01,-38.2348 -27.48,0 -45.21,19.9141 -45.21,53.5668 0,34.648 17.93,54.961 45.99,54.961 23.3,0 39.63,-14.344 40.82,-35.446 h -11.54 c -1.99,15.133 -13.73,24.887 -29.28,24.887 -19.9,0 -33.65,-15.727 -33.65,-43.406 0,-28.0784 13.75,-44.012 33.87,-44.012 15.92,0 27.48,10.1563 30.06,27.684 h 11.95"
             style="fill:#231f20;fill-opacity:1;fill-rule:nonzero;stroke:none"
             id="path30551"
             inkscape:connector-curvature="0" />
          <path
             d="m 3376.83,132.262 c -1,22.898 -13.34,36.238 -31.85,36.238 -18.54,0 -31.66,-13.539 -32.88,-36.238 z m -64.73,-10.36 c 0,-25.8825 13.56,-41.0192 33.46,-41.0192 16.13,0 27.89,8.9649 30.27,24.0972 h 11.96 c -2.6,-20.9097 -19.32,-34.648 -43.03,-34.648 -27.87,0 -45,19.711 -45,53.965 0,34.844 17.32,54.762 45.41,54.762 27.48,0 44,-18.922 44,-52.575 v -3.98 h -77.07 v -0.602"
             style="fill:#231f20;fill-opacity:1;fill-rule:nonzero;stroke:none"
             id="path30553"
             inkscape:connector-curvature="0" />
        </g>
      </g>
    </g>
  </g>
</svg>
